<?xml version="1.0" encoding="UTF-8"?><svg id="Layer_1" xmlns="http://www.w3.org/2000/svg" viewBox="0 0 917.33 926.67"><defs><style>.cls-1{fill:#425aa7;stroke-width:0px;}.cls-2{fill:#e1bd23;stroke:#e1bd23;stroke-miterlimit:10;stroke-width:.75px;}</style></defs><path class="cls-2" d="m477.59,54.3c3.99,6.11-2.83,78.25,18.97,119.39,42.14,79.51,98.81,163.7,129.28,237.29,71.67,173.1,87.5,337.27,81.04,460.63,3.6-8.62,40.84-54.51,51.37-118.44,15.32-93.1-2.06-226.76-63.81-358.21-32.48-69.14-96.24-185.34-151.79-262.34-28.48-39.48-56.87-70.9-65.06-78.32Z"/><path class="cls-1" d="m848.36,324.17c-29.92,37.77-130.2,140.82-133.26,40.46,14.45-3.34,61.61-35.26,89.95-64.98,34.24-35.91,69.16-71.23,70.78-85.9,12.64,46.81.73,74.8-27.48,110.41Z"/><path class="cls-1" d="m391.39,151.98c-20.99,47.9-39.84,97.24-47.49,132.7-16.69,77.31-26.4,109.48-46.2,169.62-32.14,97.59-126.17,289.51-196.36,424.64,13.7-1.45,68.41-57.36,80.86-70.39,21.29-22.32,134.75-195.01,177.1-334.63,33.93-111.84,61.39-246.1,107.8-426.95-20.32,16.7-57.48,63.4-75.71,105.01Z"/><path class="cls-1" d="m577.72,407.33c-66.26.61-82.56.75-148.83,1.35-10.34.09-22.31,34.96-13.36,40.48,25.21,15.61,43.56,27.6,93.76,24.33,40.51-2.63,47.01-10.35,68.48-24.33,8.81-5.74,10.29-41.92-.04-41.84Z"/><path class="cls-1" d="m150.19,341.68C34.6,219.03,44.84,55.7,53.55,53.87c6.86-1.44-8.53,113.26,90.12,211.63,67.91,67.71,107.75,81.61,138.44,111.26,13.17,12.71-38.76,38.55-54.13,28.17-21.09-14.24-57.77-42.01-77.78-63.25Z"/></svg>